<svg xmlns="http://www.w3.org/2000/svg" viewBox="0 0 32 32" fill="none">
  <defs>
    <linearGradient id="g" x1="0%" y1="0%" x2="100%" y2="100%">
      <stop offset="0%" stop-color="#6366f1"/>
      <stop offset="100%" stop-color="#7c3aed"/>
    </linearGradient>
  </defs>
  <rect width="32" height="32" rx="7" fill="url(#g)"/>
  <g transform="translate(6,6) scale(0.833)" stroke="white" fill="none" stroke-width="2" stroke-linecap="round" stroke-linejoin="round">
    <path d="M10 20H4a2 2 0 0 1-2-2V5c0-1.1.9-2 2-2h3.93a2 2 0 0 1 1.66.9l.82 1.2a2 2 0 0 0 1.66.9H20a2 2 0 0 1 2 2v2.5"/>
    <rect width="8" height="5" x="13" y="14" rx=".7"/>
    <path d="M13 14v-2a2 2 0 0 1 4 0v2"/>
  </g>
</svg>
